<?xml version="1.0" encoding="UTF-8" standalone="no"?>
<svg
   xmlns:dc="http://purl.org/dc/elements/1.1/"
   xmlns:cc="http://creativecommons.org/ns#"
   xmlns:rdf="http://www.w3.org/1999/02/22-rdf-syntax-ns#"
   xmlns:svg="http://www.w3.org/2000/svg"
   xmlns="http://www.w3.org/2000/svg"
   xmlns:sodipodi="http://sodipodi.sourceforge.net/DTD/sodipodi-0.dtd"
   xmlns:inkscape="http://www.inkscape.org/namespaces/inkscape"
   inkscape:version="1.0 (4035a4fb49, 2020-05-01)"
   sodipodi:docname="CONALEP (1).svg"
   version="1.1"
   id="svg2"
   xml:space="preserve"
   width="1492.9918"
   height="894.29712"
   viewBox="0 0 1492.9918 894.29711"><sodipodi:namedview
     inkscape:current-layer="svg2"
     inkscape:window-maximized="1"
     inkscape:window-y="-8"
     inkscape:window-x="1352"
     inkscape:cy="627.78045"
     inkscape:cx="241.62738"
     inkscape:zoom="0.20195748"
     fit-margin-bottom="0"
     fit-margin-right="0"
     fit-margin-left="0"
     fit-margin-top="0"
     showguides="false"
     showgrid="false"
     id="namedview21"
     inkscape:window-height="1017"
     inkscape:window-width="1920"
     inkscape:pageshadow="2"
     inkscape:pageopacity="0"
     guidetolerance="10"
     gridtolerance="10"
     objecttolerance="10"
     borderopacity="1"
     bordercolor="#666666"
     pagecolor="#ffffff" /><metadata
     id="metadata8"><rdf:RDF><cc:Work
         rdf:about=""><dc:format>image/svg+xml</dc:format><dc:type
           rdf:resource="http://purl.org/dc/dcmitype/StillImage" /><dc:title></dc:title></cc:Work></rdf:RDF></metadata><defs
     id="defs6" /><path
     d="M 59.790782,327.40845 0,718.4233 l 28.972901,-13.27267 30.201881,-15.48364 30.821907,-17.14656 31.437891,-18.25242 31.43789,-19.91359 32.0549,-20.45342 32.05389,-21.02039 32.67087,-22.1272 32.67091,-22.11816 32.6739,-22.11816 33.28287,-22.67608 32.67491,-22.12721 32.66686,-21.56926 32.67391,-21.01138 32.66687,-19.91356 32.05489,-18.80675 31.44189,-18.24886 31.43793,-16.03522 30.81783,-14.93742 30.20495,-12.7148 29.58988,-10.51019 28.97293,-8.29656 28.35689,-6.08296 27.73586,-3.32043 26.50792,-0.54889 25.88795,2.76254 24.65993,5.53404 23.42392,9.39438 22.1879,13.2727 20.96193,17.15104 20.33894,21.01137 18.49991,25.43862 247.18209,-153.74746 -24.0368,-44.79425 -26.5089,-39.81813 -27.1219,-34.84199 -28.971,-30.42375 -30.2069,-25.4386 L 1010.9376,53.09985 978.89165,35.39991 945.59977,21.56929 911.0819,11.05911 875.94097,4.42726 840.18708,0.55793 803.20729,0 l -36.98794,2.21361 -37.60082,4.97614 -38.21791,7.18976 -38.22086,9.96129 -38.83283,11.608 -38.83788,13.27269 -39.44986,15.48634 -38.83287,16.59313 -38.83789,18.24885 -38.83285,18.80675 -38.21686,19.91356 -38.22089,21.01137 -37.60086,21.02037 -36.98889,21.56027 -36.98487,22.12719 -35.75187,21.56927 -35.13991,21.01137 -34.51485,21.02037 -33.290891,20.46247 -32.054907,19.35565"
     style="fill:#047c64;fill-opacity:1;fill-rule:evenodd;stroke:none;stroke-width:0.950916"
     id="path16" /><g
     style="fill:#047c64;fill-opacity:1"
     id="g18"
     transform="matrix(1.0039193,0,0,-0.9007084,-221.68714,1564.9377)" /><path
     d="m 1443.6821,550.84887 49.3097,-392.67419 -28.9708,14.37952 -29.5939,16.03523 -30.2069,17.69995 -30.8199,19.36465 -30.82,19.90456 -31.4328,21.56928 -32.0559,21.56927 -32.0559,22.67608 -32.0559,23.23399 -32.0559,22.66708 -32.6688,23.234 -32.0559,22.67608 -32.0559,22.11818 -32.0559,22.12717 -32.0458,20.46248 -31.44292,19.90456 -30.81997,18.25786 -30.81987,17.14204 -30.20691,15.48628 -30.20689,13.27274 -28.97091,11.61697 -28.9709,8.84549 -28.35288,6.63188 -27.1239,3.87828 -26.50792,1.09783 -25.89193,-2.20463 -24.65488,-5.53405 -24.04299,-8.84542 -22.80591,-12.72386 -21.5739,-16.03523 -20.34089,-21.02032 -19.11297,-24.88973 -244.10517,158.73262 25.89192,44.24535 27.12391,39.26648 28.35288,34.2886 29.58891,29.86407 30.8219,24.88605 32.05489,21.02039 32.66987,17.14205 33.90386,13.27271 34.52293,9.40339 35.74786,6.08381 35.75592,3.31869 36.98484,-0.5514 36.98485,-2.76702 37.59992,-5.52865 37.60285,-8.29934 38.22589,-10.50658 38.82884,-12.72021 38.21589,-14.38041 38.83881,-16.03523 37.60287,-17.1465 38.2159,-18.80495 38.8388,-19.90906 37.5929,-21.01682 37.613,-21.57103 36.9797,-22.11998 36.9899,-22.12362 35.7539,-22.67878 35.1309,-22.11816 34.5179,-22.11816 33.9048,-22.1272 32.679,-20.46246 32.0559,-20.46248"
     style="fill:#047c64;fill-opacity:1;fill-rule:evenodd;stroke:none;stroke-width:0.950916"
     id="path22" /><g
     style="fill:#047c64;fill-opacity:1"
     id="g24"
     transform="matrix(1.0039193,0,0,-0.9007084,-221.68714,1564.9377)" /></svg>
